<?xml version="1.0" encoding="UTF-8" standalone="no"?>
<!DOCTYPE svg PUBLIC "-//W3C//DTD SVG 1.1//EN" "http://www.w3.org/Graphics/SVG/1.1/DTD/svg11.dtd">
<svg width="100%" height="100%" viewBox="0 0 126 125" version="1.1" xmlns="http://www.w3.org/2000/svg" xmlns:xlink="http://www.w3.org/1999/xlink" xml:space="preserve" xmlns:serif="http://www.serif.com/" style="fill-rule:evenodd;clip-rule:evenodd;stroke-linejoin:round;stroke-miterlimit:10;">
    <g transform="matrix(0.14946,0,0,0.14946,-9.0192,5.46288)">
        <path d="M480,227.882C480,206.425 499.502,189.031 523.559,189.031C547.616,189.031 567.118,206.425 567.118,227.882C567.118,249.338 547.616,266.732 523.559,266.732C499.502,266.732 480,249.338 480,227.882Z" style="fill:rgb(56,118,29);"/>
    </g>
    <g transform="matrix(0.14946,0,0,0.14946,-9.0192,5.46288)">
        <path d="M480,227.882C480,206.425 499.502,189.031 523.559,189.031C547.616,189.031 567.118,206.425 567.118,227.882C567.118,249.338 547.616,266.732 523.559,266.732C499.502,266.732 480,249.338 480,227.882Z" style="fill:rgb(29,118,77);stroke:rgb(56,118,29);stroke-width:1px;"/>
    </g>
    <g transform="matrix(0.14946,0,0,0.14946,-9.0192,5.46288)">
        <path d="M472.591,557.076C472.591,543.273 485.662,532.084 501.787,532.084C517.912,532.084 530.984,543.273 530.984,557.076C530.984,570.879 517.912,582.068 501.787,582.068C485.662,582.068 472.591,570.879 472.591,557.076Z" style="fill:white;"/>
    </g>
    <g transform="matrix(0.14946,0,0,0.14946,-9.0192,5.46288)">
        <path d="M472.591,557.076C472.591,543.273 485.662,532.084 501.787,532.084C517.912,532.084 530.984,543.273 530.984,557.076C530.984,570.879 517.912,582.068 501.787,582.068C485.662,582.068 472.591,570.879 472.591,557.076Z" style="fill:none;stroke:white;stroke-width:1px;"/>
    </g>
    <g transform="matrix(0.14946,0,0,0.14946,-9.0192,5.46288)">
        <path d="M60.845,385.564C60.845,362.934 80.347,344.588 104.404,344.588C115.957,344.588 127.036,348.905 135.205,356.59C143.374,364.274 147.963,374.697 147.963,385.564C147.963,408.195 128.461,426.541 104.404,426.541C80.347,426.541 60.845,408.195 60.845,385.564L60.845,385.564Z" style="fill:rgb(29,118,77);"/>
    </g>
    <g transform="matrix(0.14946,0,0,0.14946,-9.0192,5.46288)">
        <path d="M60.845,385.564C60.845,362.934 80.347,344.588 104.404,344.588C115.957,344.588 127.036,348.905 135.205,356.59C143.374,364.274 147.963,374.697 147.963,385.564C147.963,408.195 128.461,426.541 104.404,426.541C80.347,426.541 60.845,408.195 60.845,385.564L60.845,385.564Z" style="fill:none;stroke:rgb(56,118,29);stroke-width:1px;"/>
    </g>
    <g transform="matrix(0.14946,0,0,0.14946,-9.0192,5.46288)">
        <path d="M643.99,563.861C643.99,542.404 661.75,525.01 683.659,525.01C694.18,525.01 704.27,529.104 711.709,536.39C719.149,543.675 723.328,553.557 723.328,563.861C723.328,585.317 705.568,602.711 683.659,602.711C661.75,602.711 643.99,585.317 643.99,563.861Z" style="fill:white;"/>
    </g>
    <g transform="matrix(0.14946,0,0,0.14946,-9.0192,5.46288)">
        <path d="M643.99,563.861C643.99,542.404 661.75,525.01 683.659,525.01C694.18,525.01 704.27,529.104 711.709,536.39C719.149,543.675 723.328,553.557 723.328,563.861C723.328,585.317 705.568,602.711 683.659,602.711C661.75,602.711 643.99,585.317 643.99,563.861Z" style="fill:none;stroke:white;stroke-width:1px;"/>
    </g>
    <g transform="matrix(0.14946,0,0,0.14946,-9.0192,5.46288)">
        <path d="M654.462,423.685C654.462,408.325 667.534,395.874 683.659,395.874C691.402,395.874 698.829,398.804 704.304,404.02C709.78,409.235 712.856,416.309 712.856,423.685C712.856,439.045 699.784,451.496 683.659,451.496C667.534,451.496 654.462,439.045 654.462,423.685Z" style="fill:rgb(29,118,77);"/>
    </g>
    <g transform="matrix(0.14946,0,0,0.14946,-9.0192,5.46288)">
        <path d="M654.462,423.685C654.462,408.325 667.534,395.874 683.659,395.874C691.402,395.874 698.829,398.804 704.304,404.02C709.78,409.235 712.856,416.309 712.856,423.685C712.856,439.045 699.784,451.496 683.659,451.496C667.534,451.496 654.462,439.045 654.462,423.685Z" style="fill:none;stroke:rgb(56,118,29);stroke-width:1px;"/>
    </g>
    <g transform="matrix(0.14946,0,0,0.14946,-9.0192,5.46288)">
        <path d="M235.609,222.979C235.609,190.799 263.558,164.711 298.034,164.711C332.511,164.711 360.459,190.799 360.459,222.979C360.459,255.159 332.511,281.247 298.034,281.247C263.558,281.247 235.609,255.159 235.609,222.979Z" style="fill:rgb(29,118,77);"/>
    </g>
    <g transform="matrix(0.14946,0,0,0.14946,-9.0192,5.46288)">
        <path d="M235.609,222.979C235.609,190.799 263.558,164.711 298.034,164.711C332.511,164.711 360.459,190.799 360.459,222.979C360.459,255.159 332.511,281.247 298.034,281.247C263.558,281.247 235.609,255.159 235.609,222.979Z" style="fill:none;stroke:rgb(56,118,29);stroke-width:1px;"/>
    </g>
    <g transform="matrix(0.14946,0,0,0.14946,-9.0192,5.46288)">
        <path d="M360.459,405.415C360.459,357.048 401.952,317.84 453.136,317.84C477.716,317.84 501.289,327.066 518.669,343.49C536.049,359.913 545.814,382.188 545.814,405.415C545.814,453.781 504.321,492.989 453.136,492.989C401.952,492.989 360.459,453.781 360.459,405.415L360.459,405.415Z" style="fill:rgb(29,118,77);"/>
    </g>
    <g transform="matrix(0.14946,0,0,0.14946,-9.0192,5.46288)">
        <path d="M360.459,405.415C360.459,357.048 401.952,317.84 453.136,317.84C477.716,317.84 501.289,327.066 518.669,343.49C536.049,359.913 545.814,382.188 545.814,405.415C545.814,453.781 504.321,492.989 453.136,492.989C401.952,492.989 360.459,453.781 360.459,405.415L360.459,405.415Z" style="fill:none;stroke:rgb(56,118,29);stroke-width:1px;"/>
    </g>
    <g transform="matrix(0.14946,0,0,0.14946,-9.0192,5.46288)">
        <path d="M786.205,481.706C786.205,453.883 810.833,431.328 841.213,431.328C871.593,431.328 896.22,453.883 896.22,481.706C896.22,509.529 871.593,532.084 841.213,532.084C810.833,532.084 786.205,509.529 786.205,481.706Z" style="fill:rgb(29,118,77);"/>
    </g>
    <g transform="matrix(0.14946,0,0,0.14946,-9.0192,5.46288)">
        <path d="M786.205,481.706C786.205,453.883 810.833,431.328 841.213,431.328C871.593,431.328 896.22,453.883 896.22,481.706C896.22,509.529 871.593,532.084 841.213,532.084C810.833,532.084 786.205,509.529 786.205,481.706Z" style="fill:none;stroke:rgb(56,118,29);stroke-width:1px;"/>
    </g>
    <g transform="matrix(0.14946,0,0,0.14946,-9.0192,5.46288)">
        <path d="M341.247,646.394C341.247,609.665 372.953,579.89 412.066,579.89C430.848,579.89 448.861,586.896 462.142,599.368C475.423,611.84 482.885,628.756 482.885,646.394C482.885,683.123 451.178,712.898 412.066,712.898C372.953,712.898 341.247,683.123 341.247,646.394L341.247,646.394Z" style="fill:rgb(29,118,77);"/>
    </g>
    <g transform="matrix(0.14946,0,0,0.14946,-9.0192,5.46288)">
        <path d="M341.247,646.394C341.247,609.665 372.953,579.89 412.066,579.89C430.848,579.89 448.861,586.896 462.142,599.368C475.423,611.84 482.885,628.756 482.885,646.394C482.885,683.123 451.178,712.898 412.066,712.898C372.953,712.898 341.247,683.123 341.247,646.394L341.247,646.394Z" style="fill:none;stroke:rgb(56,118,29);stroke-width:1px;"/>
    </g>
    <g transform="matrix(0.14946,0,0,0.14946,-9.0192,5.46288)">
        <path d="M192.74,543.367C192.74,515.544 217.368,492.99 247.748,492.99C278.128,492.99 302.756,515.544 302.756,543.367C302.756,571.19 278.128,593.745 247.748,593.745C217.368,593.745 192.74,571.19 192.74,543.367Z" style="fill:rgb(29,118,77);"/>
    </g>
    <g transform="matrix(0.14946,0,0,0.14946,-9.0192,5.46288)">
        <path d="M192.74,543.367C192.74,515.544 217.368,492.99 247.748,492.99C278.128,492.99 302.756,515.544 302.756,543.367C302.756,571.19 278.128,593.745 247.748,593.745C217.368,593.745 192.74,571.19 192.74,543.367Z" style="fill:none;stroke:rgb(56,118,29);stroke-width:1px;"/>
    </g>
    <g transform="matrix(0.14946,0,0,0.14946,-9.0192,5.46288)">
        <path d="M385.472,89.194C385.472,67.738 404.974,50.344 429.031,50.344C453.088,50.344 472.591,67.738 472.591,89.194C472.591,110.651 453.088,128.045 429.031,128.045C404.974,128.045 385.472,110.651 385.472,89.194Z" style="fill:white;"/>
    </g>
    <g transform="matrix(0.14946,0,0,0.14946,-9.0192,5.46288)">
        <path d="M385.472,89.194C385.472,67.738 404.974,50.344 429.031,50.344C453.088,50.344 472.591,67.738 472.591,89.194C472.591,110.651 453.088,128.045 429.031,128.045C404.974,128.045 385.472,110.651 385.472,89.194Z" style="fill:none;stroke:white;stroke-width:1px;"/>
    </g>
    <g transform="matrix(0.14946,0,0,0.14946,-9.0192,5.46288)">
        <path d="M636.486,281.244C636.486,253.421 661.113,230.866 691.493,230.866C721.873,230.866 746.501,253.421 746.501,281.244C746.501,309.067 721.873,331.622 691.493,331.622C661.113,331.622 636.486,309.067 636.486,281.244Z" style="fill:white;"/>
    </g>
    <g transform="matrix(0.14946,0,0,0.14946,-9.0192,5.46288)">
        <path d="M636.486,281.244C636.486,253.421 661.113,230.866 691.493,230.866C721.873,230.866 746.501,253.421 746.501,281.244C746.501,309.067 721.873,331.622 691.493,331.622C661.113,331.622 636.486,309.067 636.486,281.244Z" style="fill:none;stroke:white;stroke-width:1px;"/>
    </g>
    <g transform="matrix(0.14946,0,0,0.14946,-9.0192,5.46288)">
        <path d="M192.739,380.95C192.739,353.127 217.367,330.572 247.747,330.572C278.127,330.572 302.755,353.127 302.755,380.95C302.755,408.773 278.127,431.328 247.747,431.328C217.367,431.328 192.739,408.773 192.739,380.95Z" style="fill:white;"/>
    </g>
    <g transform="matrix(0.14946,0,0,0.14946,-9.0192,5.46288)">
        <path d="M192.739,380.95C192.739,353.127 217.367,330.572 247.747,330.572C278.127,330.572 302.755,353.127 302.755,380.95C302.755,408.773 278.127,431.328 247.747,431.328C217.367,431.328 192.739,408.773 192.739,380.95Z" style="fill:none;stroke:white;stroke-width:1px;"/>
    </g>
    <g transform="matrix(0.14946,0,0,0.14946,-9.0192,5.46288)">
        <path d="M711.297,428.475L733.472,418.013L730.543,426.17L780.365,444.04L783.295,435.882L793.753,458.05L771.578,468.512L774.507,460.355L724.685,442.485L721.755,450.642L711.297,428.475Z" style="fill:rgb(19,79,92);"/>
    </g>
    <g transform="matrix(0.14946,0,0,0.14946,-9.0192,5.46288)">
        <path d="M711.297,428.475L733.472,418.013L730.543,426.17L780.365,444.04L783.295,435.882L793.753,458.05L771.578,468.512L774.507,460.355L724.685,442.485L721.755,450.642L711.297,428.475Z" style="fill:none;stroke:white;stroke-width:1px;"/>
    </g>
    <g transform="matrix(0.14946,0,0,0.14946,-9.0192,5.46288)">
        <path d="M404.263,339.026L379.727,339.026L385.861,332.892L341.263,288.294L335.129,294.428L335.129,269.892L359.664,269.892L353.53,276.026L398.129,320.625L404.263,314.491L404.263,339.026Z" style="fill:rgb(19,79,92);"/>
    </g>
    <g transform="matrix(0.14946,0,0,0.14946,-9.0192,5.46288)">
        <path d="M404.263,339.026L379.727,339.026L385.861,332.892L341.263,288.294L335.129,294.428L335.129,269.892L359.664,269.892L353.53,276.026L398.129,320.625L404.263,314.491L404.263,339.026Z" style="fill:none;stroke:white;stroke-width:1px;"/>
    </g>
    <g transform="matrix(0.14946,0,0,0.14946,-9.0192,5.46288)">
        <path d="M137.488,361.863L138.695,337.369L144.514,343.794L233.312,263.302L227.493,256.877L251.976,258.084L250.769,282.578L244.95,276.153L156.152,356.645L161.971,363.07L137.488,361.863Z" style="fill:rgb(19,79,92);"/>
    </g>
    <g transform="matrix(0.14946,0,0,0.14946,-9.0192,5.46288)">
        <path d="M137.488,361.863L138.695,337.369L144.514,343.794L233.312,263.302L227.493,256.877L251.976,258.084L250.769,282.578L244.95,276.153L156.152,356.645L161.971,363.07L137.488,361.863Z" style="fill:none;stroke:white;stroke-width:1px;"/>
    </g>
    <g transform="matrix(0.14946,0,0,0.14946,-9.0192,5.46288)">
        <path d="M360.737,222.112L379.586,206.457L378.791,215.087L468.589,223.436L469.384,214.806L485.052,233.671L466.203,249.326L466.998,240.696L377.2,232.346L376.405,240.976L360.737,222.112Z" style="fill:rgb(19,79,92);"/>
    </g>
    <g transform="matrix(0.14946,0,0,0.14946,-9.0192,5.46288)">
        <path d="M360.737,222.112L379.586,206.457L378.791,215.087L468.589,223.436L469.384,214.806L485.052,233.671L466.203,249.326L466.998,240.696L377.2,232.346L376.405,240.976L360.737,222.112Z" style="fill:none;stroke:white;stroke-width:1px;"/>
    </g>
    <g transform="matrix(0.14946,0,0,0.14946,-9.0192,5.46288)">
        <path d="M543.341,413.181L561.625,396.84L561.137,405.494L639.372,409.861L639.86,401.207L656.192,419.48L637.908,435.821L638.396,427.168L560.161,422.801L559.672,431.454L543.341,413.181Z" style="fill:rgb(19,79,92);"/>
    </g>
    <g transform="matrix(0.14946,0,0,0.14946,-9.0192,5.46288)">
        <path d="M543.341,413.181L561.625,396.84L561.137,405.494L639.372,409.861L639.86,401.207L656.192,419.48L637.908,435.821L638.396,427.168L560.161,422.801L559.672,431.454L543.341,413.181Z" style="fill:none;stroke:white;stroke-width:1px;"/>
    </g>
    <g transform="matrix(0.14946,0,0,0.14946,-9.0192,5.46288)">
        <path d="M349.491,617.507L325.288,621.526L330.335,614.479L298.394,591.668L293.347,598.716L289.333,574.546L313.536,570.527L308.489,577.574L340.43,600.384L345.477,593.337L349.491,617.507Z" style="fill:rgb(19,79,92);"/>
    </g>
    <g transform="matrix(0.14946,0,0,0.14946,-9.0192,5.46288)">
        <path d="M349.491,617.507L325.288,621.526L330.335,614.479L298.394,591.668L293.347,598.716L289.333,574.546L313.536,570.527L308.489,577.574L340.43,600.384L345.477,593.337L349.491,617.507Z" style="fill:none;stroke:white;stroke-width:1px;"/>
    </g>
    <g transform="matrix(0.14946,0,0,0.14946,-9.0192,5.46288)">
        <path d="M296.36,519.633L300.358,495.442L305.405,502.489L363.298,461.013L358.251,453.966L382.438,457.963L378.44,482.155L373.393,475.107L315.5,516.583L320.547,523.631L296.36,519.633Z" style="fill:rgb(19,79,92);"/>
    </g>
    <g transform="matrix(0.14946,0,0,0.14946,-9.0192,5.46288)">
        <path d="M296.36,519.633L300.358,495.442L305.405,502.489L363.298,461.013L358.251,453.966L382.438,457.963L378.44,482.155L373.393,475.107L315.5,516.583L320.547,523.631L296.36,519.633Z" style="fill:none;stroke:white;stroke-width:1px;"/>
    </g>
</svg>
